<svg width="392" height="176" viewBox="0 0 392 176" fill="none" xmlns="http://www.w3.org/2000/svg">
    <path d="M68.3526 175.7V144.997H6.72314V112.95L79.7821 19.2732H104.21V112.726H123.931V144.997H104.21V175.7H68.3526ZM42.1321 112.726H72.6106V73.0589L42.1321 112.726Z" fill="#EF4884"/>
    <path d="M259.544 81.575C259.544 94.7226 257.004 106.451 251.924 116.76C246.845 126.919 239.897 134.913 231.082 140.739C222.268 146.566 212.257 149.479 201.052 149.479C189.847 149.479 179.837 146.566 171.022 140.739C162.207 134.913 155.259 126.919 150.18 116.76C145.1 106.451 142.56 94.7226 142.56 81.575C142.56 68.4274 145.1 56.7738 150.18 46.6143C155.259 36.3054 162.207 28.2375 171.022 22.4107C179.837 16.4345 189.847 13.4464 201.052 13.4464C212.257 13.4464 222.268 16.4345 231.082 22.4107C239.897 28.2375 246.845 36.3054 251.924 46.6143C257.004 56.7738 259.544 68.4274 259.544 81.575ZM223.463 81.575C223.463 71.1167 221.296 62.6753 216.964 56.2509C212.78 49.6771 207.476 46.3902 201.052 46.3902C194.329 46.3902 188.876 49.6771 184.692 56.2509C180.509 62.6753 178.417 71.1167 178.417 81.575C178.417 92.0333 180.509 100.475 184.692 106.899C188.876 113.324 194.329 116.536 201.052 116.536C207.476 116.536 212.78 113.324 216.964 106.899C221.296 100.475 223.463 92.0333 223.463 81.575Z" fill="#EF4884"/>
    <path d="M335.574 175.7V144.997H273.945V112.95L347.004 19.2732H371.431V112.726H391.153V144.997H371.431V175.7H335.574ZM309.354 112.726H339.832V73.0589L309.354 112.726Z" fill="#EF4884"/>
    <path d="M61.6295 162.254V131.551H0V99.5036L73.0589 5.82678H97.4866V99.2795H117.208V131.551H97.4866V162.254H61.6295ZM35.4089 99.2795H65.8875V59.6125L35.4089 99.2795Z" fill="#48E5EF"/>
    <path d="M252.821 68.1286C252.821 81.2762 250.281 93.0045 245.201 103.313C240.121 113.473 233.174 121.466 224.359 127.293C215.544 133.12 205.534 136.033 194.329 136.033C183.124 136.033 173.113 133.12 164.299 127.293C155.484 121.466 148.536 113.473 143.457 103.313C138.377 93.0045 135.837 81.2762 135.837 68.1286C135.837 54.981 138.377 43.3274 143.457 33.1679C148.536 22.8589 155.484 14.7911 164.299 8.96428C173.113 2.98809 183.124 0 194.329 0C205.534 0 215.544 2.98809 224.359 8.96428C233.174 14.7911 240.121 22.8589 245.201 33.1679C250.281 43.3274 252.821 54.981 252.821 68.1286ZM216.74 68.1286C216.74 57.6702 214.573 49.2289 210.241 42.8045C206.057 36.2307 200.753 32.9438 194.329 32.9438C187.606 32.9438 182.152 36.2307 177.969 42.8045C173.786 49.2289 171.694 57.6702 171.694 68.1286C171.694 78.5869 173.786 87.0283 177.969 93.4527C182.152 99.8771 187.606 103.089 194.329 103.089C200.753 103.089 206.057 99.8771 210.241 93.4527C214.573 87.0283 216.74 78.5869 216.74 68.1286Z" fill="#48E5EF"/>
    <path d="M328.851 162.254V131.551H267.222V99.5036L340.28 5.82678H364.708V99.2795H384.43V131.551H364.708V162.254H328.851ZM302.63 99.2795H333.109V59.6125L302.63 99.2795Z" fill="#48E5EF"/>
    <path d="M63.8707 168.977V138.274H2.24121V106.227L75.3001 12.55H99.7278V106.003H119.449V138.274H99.7278V168.977H63.8707ZM37.6501 106.003H68.1287V66.3357L37.6501 106.003Z" fill="#181818"/>
    <path d="M255.062 74.8518C255.062 87.9994 252.522 99.7277 247.442 110.037C242.363 120.196 235.415 128.189 226.6 134.016C217.786 139.843 207.775 142.756 196.57 142.756C185.365 142.756 175.355 139.843 166.54 134.016C157.725 128.189 150.778 120.196 145.698 110.037C140.618 99.7277 138.078 87.9994 138.078 74.8518C138.078 61.7042 140.618 50.0506 145.698 39.8911C150.778 29.5821 157.725 21.5143 166.54 15.6875C175.355 9.71131 185.365 6.72322 196.57 6.72322C207.775 6.72322 217.786 9.71131 226.6 15.6875C235.415 21.5143 242.363 29.5821 247.442 39.8911C252.522 50.0506 255.062 61.7042 255.062 74.8518ZM218.981 74.8518C218.981 64.3935 216.814 55.9521 212.482 49.5277C208.298 42.9539 202.995 39.667 196.57 39.667C189.847 39.667 184.394 42.9539 180.21 49.5277C176.027 55.9521 173.935 64.3935 173.935 74.8518C173.935 85.3101 176.027 93.7515 180.21 100.176C184.394 106.6 189.847 109.813 196.57 109.813C202.995 109.813 208.298 106.6 212.482 100.176C216.814 93.7515 218.981 85.3101 218.981 74.8518Z" fill="#181818"/>
    <path d="M331.092 168.977V138.274H269.463V106.227L342.522 12.55H366.949V106.003H386.671V138.274H366.949V168.977H331.092ZM304.872 106.003H335.35V66.3357L304.872 106.003Z" fill="#181818"/>
</svg>
