<svg width="388" height="164" viewBox="0 0 388 164" fill="none" xmlns="http://www.w3.org/2000/svg">
    <path d="M64.3526 163.7V132.997H2.72314V100.95L75.7821 7.27321H100.21V100.726H119.931V132.997H100.21V163.7H64.3526ZM38.1321 100.726H68.6106V61.0589L38.1321 100.726Z" fill="#EF4884"/>
    <path d="M255.544 69.575C255.544 82.7226 253.004 94.4509 247.924 104.76C242.845 114.919 235.897 122.913 227.082 128.739C218.268 134.566 208.257 137.479 197.052 137.479C185.847 137.479 175.837 134.566 167.022 128.739C158.207 122.913 151.259 114.919 146.18 104.76C141.1 94.4509 138.56 82.7226 138.56 69.575C138.56 56.4274 141.1 44.7738 146.18 34.6143C151.259 24.3054 158.207 16.2375 167.022 10.4107C175.837 4.43452 185.847 1.44643 197.052 1.44643C208.257 1.44643 218.268 4.43452 227.082 10.4107C235.897 16.2375 242.845 24.3054 247.924 34.6143C253.004 44.7738 255.544 56.4274 255.544 69.575ZM219.463 69.575C219.463 59.1167 217.296 50.6753 212.964 44.2509C208.78 37.6771 203.476 34.3902 197.052 34.3902C190.329 34.3902 184.876 37.6771 180.692 44.2509C176.509 50.6753 174.417 59.1167 174.417 69.575C174.417 80.0333 176.509 88.4747 180.692 94.8991C184.876 101.324 190.329 104.536 197.052 104.536C203.476 104.536 208.78 101.324 212.964 94.8991C217.296 88.4747 219.463 80.0333 219.463 69.575Z" fill="#EF4884"/>
    <path d="M331.574 163.7V132.997H269.945V100.95L343.004 7.27321H367.431V100.726H387.153V132.997H367.431V163.7H331.574ZM305.354 100.726H335.832V61.0589L305.354 100.726Z" fill="#EF4884"/>
    <path d="M61.6295 162.254V131.551H0V99.5036L73.0589 5.82678H97.4866V99.2795H117.208V131.551H97.4866V162.254H61.6295ZM35.4089 99.2795H65.8875V59.6125L35.4089 99.2795Z" fill="#48E5EF"/>
    <path d="M252.821 68.1286C252.821 81.2762 250.281 93.0045 245.201 103.313C240.121 113.473 233.174 121.466 224.359 127.293C215.544 133.12 205.534 136.033 194.329 136.033C183.124 136.033 173.113 133.12 164.299 127.293C155.484 121.466 148.536 113.473 143.457 103.313C138.377 93.0045 135.837 81.2762 135.837 68.1286C135.837 54.981 138.377 43.3274 143.457 33.1679C148.536 22.8589 155.484 14.7911 164.299 8.96428C173.113 2.98809 183.124 0 194.329 0C205.534 0 215.544 2.98809 224.359 8.96428C233.174 14.7911 240.121 22.8589 245.201 33.1679C250.281 43.3274 252.821 54.981 252.821 68.1286ZM216.74 68.1286C216.74 57.6702 214.573 49.2289 210.241 42.8045C206.057 36.2307 200.753 32.9438 194.329 32.9438C187.606 32.9438 182.152 36.2307 177.969 42.8045C173.786 49.2289 171.694 57.6702 171.694 68.1286C171.694 78.5869 173.786 87.0283 177.969 93.4527C182.152 99.8771 187.606 103.089 194.329 103.089C200.753 103.089 206.057 99.8771 210.241 93.4527C214.573 87.0283 216.74 78.5869 216.74 68.1286Z" fill="#48E5EF"/>
    <path d="M328.851 162.254V131.551H267.221V99.5036L340.28 5.82678H364.708V99.2795H384.43V131.551H364.708V162.254H328.851ZM302.63 99.2795H333.109V59.6125L302.63 99.2795Z" fill="#48E5EF"/>
    <path d="M62.8707 162.977V132.274H1.24121V100.227L74.3001 6.55H98.7278V100.003H118.449V132.274H98.7278V162.977H62.8707ZM36.6501 100.003H67.1287V60.3357L36.6501 100.003Z" fill="#181818"/>
    <path d="M254.062 68.8518C254.062 81.9994 251.522 93.7277 246.442 104.037C241.363 114.196 234.415 122.189 225.6 128.016C216.786 133.843 206.775 136.756 195.57 136.756C184.365 136.756 174.355 133.843 165.54 128.016C156.725 122.189 149.778 114.196 144.698 104.037C139.618 93.7277 137.078 81.9994 137.078 68.8518C137.078 55.7042 139.618 44.0506 144.698 33.8911C149.778 23.5822 156.725 15.5143 165.54 9.6875C174.355 3.71131 184.365 0.723221 195.57 0.723221C206.775 0.723221 216.786 3.71131 225.6 9.6875C234.415 15.5143 241.363 23.5822 246.442 33.8911C251.522 44.0506 254.062 55.7042 254.062 68.8518ZM217.981 68.8518C217.981 58.3935 215.814 49.9521 211.482 43.5277C207.298 36.9539 201.995 33.667 195.57 33.667C188.847 33.667 183.394 36.9539 179.21 43.5277C175.027 49.9521 172.935 58.3935 172.935 68.8518C172.935 79.3101 175.027 87.7515 179.21 94.1759C183.394 100.6 188.847 103.813 195.57 103.813C201.995 103.813 207.298 100.6 211.482 94.1759C215.814 87.7515 217.981 79.3101 217.981 68.8518Z" fill="#181818"/>
    <path d="M330.092 162.977V132.274H268.463V100.227L341.522 6.55H365.949V100.003H385.671V132.274H365.949V162.977H330.092ZM303.872 100.003H334.35V60.3357L303.872 100.003Z" fill="#181818"/>
</svg>
