<svg width="409" height="77" viewBox="0 0 409 77" fill="none" xmlns="http://www.w3.org/2000/svg">
    <path d="M43.456 14.56V60H32.96V41.376H14.848V60H4.352V14.56H14.848V32.16H32.96V14.56H43.456ZM52.1645 60V14.56H62.6605V60H52.1645ZM71.352 60V14.56H81.848V34.144L98.488 14.56H110.264L93.24 34.848L111.416 60H99.384L86.584 41.76L81.848 46.624V60H71.352ZM126.246 14.56H137.574L153.19 60H142.438L138.918 49.824H124.774L121.318 60H110.566L126.246 14.56ZM137.19 42.592L131.878 25.12L126.438 42.592H137.19ZM157.665 60V14.56H178.145C180.278 14.56 182.241 15.008 184.033 15.904C185.867 16.7573 187.446 17.9307 188.769 19.424C190.091 20.8747 191.115 22.5173 191.841 24.352C192.609 26.1867 192.993 28.0427 192.993 29.92C192.993 32.736 192.31 35.3387 190.944 37.728C189.622 40.0747 187.83 41.8667 185.569 43.104L195.553 60H183.969L175.265 45.344H168.161V60H157.665ZM168.161 36.192H177.761C178.998 36.192 180.065 35.616 180.961 34.464C181.857 33.2693 182.305 31.7547 182.305 29.92C182.305 28.0853 181.793 26.6133 180.769 25.504C179.745 24.352 178.635 23.776 177.441 23.776H168.161V36.192ZM200.54 60V14.56H211.036V60H200.54ZM272.233 48.352C272.233 50.9547 271.529 53.1307 270.121 54.88C268.713 56.5867 266.835 57.8667 264.489 58.72C262.185 59.5733 259.625 60 256.809 60H234.665V14.56H259.945C262.078 14.56 263.913 15.136 265.449 16.288C266.985 17.3973 268.179 18.848 269.033 20.64C269.886 22.432 270.312 24.288 270.312 26.208C270.312 28.3413 269.758 30.3893 268.649 32.352C267.539 34.3147 265.918 35.7653 263.785 36.704C266.345 37.472 268.393 38.8373 269.929 40.8C271.465 42.7627 272.233 45.28 272.233 48.352ZM245.161 23.52V32.928H255.465C256.617 32.928 257.641 32.544 258.537 31.776C259.433 31.008 259.881 29.8133 259.881 28.192C259.881 26.6987 259.475 25.5467 258.665 24.736C257.897 23.9253 256.958 23.52 255.849 23.52H245.161ZM261.545 46.24C261.545 44.832 261.139 43.6373 260.329 42.656C259.518 41.6747 258.494 41.184 257.257 41.184H245.161V51.104H256.809C258.131 51.104 259.241 50.656 260.137 49.76C261.075 48.8213 261.545 47.648 261.545 46.24ZM278.415 60V14.56H288.911V50.784H310.927V60H278.415ZM334.944 60.384C331.573 60.384 328.501 59.744 325.728 58.464C322.997 57.1413 320.629 55.392 318.624 53.216C316.618 50.9973 315.082 48.5227 314.016 45.792C312.949 43.0187 312.416 40.16 312.416 37.216C312.416 34.2293 312.97 31.3707 314.08 28.64C315.232 25.8667 316.81 23.4133 318.816 21.28C320.864 19.104 323.274 17.3973 326.048 16.16C328.821 14.9227 331.85 14.304 335.136 14.304C338.506 14.304 341.557 14.9653 344.288 16.288C347.061 17.568 349.429 19.3173 351.392 21.536C353.397 23.7547 354.933 26.2507 356 29.024C357.066 31.7547 357.6 34.5493 357.6 37.408C357.6 40.3947 357.024 43.2747 355.872 46.048C354.762 48.7787 353.184 51.232 351.136 53.408C349.13 55.5413 346.741 57.248 343.968 58.528C341.237 59.7653 338.229 60.384 334.944 60.384ZM323.104 37.344C323.104 39.6907 323.552 41.9093 324.448 44C325.344 46.048 326.688 47.7333 328.48 49.056C330.272 50.3787 332.448 51.04 335.008 51.04C337.653 51.04 339.85 50.3573 341.6 48.992C343.392 47.6267 344.714 45.8987 345.568 43.808C346.464 41.6747 346.912 39.4773 346.912 37.216C346.912 34.8693 346.442 32.672 345.504 30.624C344.608 28.5333 343.264 26.848 341.472 25.568C339.722 24.288 337.568 23.648 335.008 23.648C332.362 23.648 330.144 24.3307 328.352 25.696C326.602 27.0187 325.28 28.7253 324.384 30.816C323.53 32.9067 323.104 35.0827 323.104 37.344ZM382.929 60.32C379.942 60.32 377.126 59.7653 374.481 58.656C371.878 57.504 369.553 55.904 367.505 53.856C365.499 51.7653 363.921 49.312 362.769 46.496C361.659 43.6373 361.105 40.4587 361.105 36.96C361.105 33.8027 361.659 30.8587 362.769 28.128C363.921 25.3973 365.521 22.9867 367.569 20.896C369.659 18.8053 372.07 17.184 374.801 16.032C377.574 14.8373 380.561 14.24 383.761 14.24C387.942 14.24 391.611 15.136 394.769 16.928C397.969 18.72 400.358 21.1307 401.937 24.16L394.129 30.048C393.105 28.0427 391.611 26.464 389.649 25.312C387.686 24.16 385.595 23.584 383.377 23.584C381.073 23.584 379.046 24.2027 377.297 25.44C375.547 26.6347 374.182 28.2773 373.201 30.368C372.219 32.4587 371.729 34.784 371.729 37.344C371.729 39.9467 372.241 42.2933 373.265 44.384C374.289 46.432 375.697 48.0533 377.489 49.248C379.323 50.4 381.435 50.976 383.825 50.976C387.921 50.976 391.611 49.0987 394.897 45.344V43.872H386.065V36.256H403.601V60H394.897V55.52C391.441 58.72 387.451 60.32 382.929 60.32Z" fill="#EF4884"/>
    <path d="M45.456 16.56V62H34.96V43.376H16.848V62H6.352V16.56H16.848V34.16H34.96V16.56H45.456ZM54.1645 62V16.56H64.6605V62H54.1645ZM73.352 62V16.56H83.848V36.144L100.488 16.56H112.264L95.24 36.848L113.416 62H101.384L88.584 43.76L83.848 48.624V62H73.352ZM128.246 16.56H139.574L155.19 62H144.438L140.918 51.824H126.774L123.318 62H112.566L128.246 16.56ZM139.19 44.592L133.878 27.12L128.438 44.592H139.19ZM159.665 62V16.56H180.145C182.278 16.56 184.241 17.008 186.033 17.904C187.867 18.7573 189.446 19.9307 190.769 21.424C192.091 22.8747 193.115 24.5173 193.841 26.352C194.609 28.1867 194.993 30.0427 194.993 31.92C194.993 34.736 194.31 37.3387 192.944 39.728C191.622 42.0747 189.83 43.8667 187.569 45.104L197.553 62H185.969L177.265 47.344H170.161V62H159.665ZM170.161 38.192H179.761C180.998 38.192 182.065 37.616 182.961 36.464C183.857 35.2693 184.305 33.7547 184.305 31.92C184.305 30.0853 183.793 28.6133 182.769 27.504C181.745 26.352 180.635 25.776 179.441 25.776H170.161V38.192ZM202.54 62V16.56H213.036V62H202.54ZM274.233 50.352C274.233 52.9547 273.529 55.1307 272.121 56.88C270.713 58.5867 268.835 59.8667 266.489 60.72C264.185 61.5733 261.625 62 258.809 62H236.665V16.56H261.945C264.078 16.56 265.913 17.136 267.449 18.288C268.985 19.3973 270.179 20.848 271.033 22.64C271.886 24.432 272.312 26.288 272.312 28.208C272.312 30.3413 271.758 32.3893 270.649 34.352C269.539 36.3147 267.918 37.7653 265.785 38.704C268.345 39.472 270.393 40.8373 271.929 42.8C273.465 44.7627 274.233 47.28 274.233 50.352ZM247.161 25.52V34.928H257.465C258.617 34.928 259.641 34.544 260.537 33.776C261.433 33.008 261.881 31.8133 261.881 30.192C261.881 28.6987 261.475 27.5467 260.665 26.736C259.897 25.9253 258.958 25.52 257.849 25.52H247.161ZM263.545 48.24C263.545 46.832 263.139 45.6373 262.329 44.656C261.518 43.6747 260.494 43.184 259.257 43.184H247.161V53.104H258.809C260.131 53.104 261.241 52.656 262.137 51.76C263.075 50.8213 263.545 49.648 263.545 48.24ZM280.415 62V16.56H290.911V52.784H312.927V62H280.415ZM336.944 62.384C333.573 62.384 330.501 61.744 327.728 60.464C324.997 59.1413 322.629 57.392 320.624 55.216C318.618 52.9973 317.082 50.5227 316.016 47.792C314.949 45.0187 314.416 42.16 314.416 39.216C314.416 36.2293 314.97 33.3707 316.08 30.64C317.232 27.8667 318.81 25.4133 320.816 23.28C322.864 21.104 325.274 19.3973 328.048 18.16C330.821 16.9227 333.85 16.304 337.136 16.304C340.506 16.304 343.557 16.9653 346.288 18.288C349.061 19.568 351.429 21.3173 353.392 23.536C355.397 25.7547 356.933 28.2507 358 31.024C359.066 33.7547 359.6 36.5493 359.6 39.408C359.6 42.3947 359.024 45.2747 357.872 48.048C356.762 50.7787 355.184 53.232 353.136 55.408C351.13 57.5413 348.741 59.248 345.968 60.528C343.237 61.7653 340.229 62.384 336.944 62.384ZM325.104 39.344C325.104 41.6907 325.552 43.9093 326.448 46C327.344 48.048 328.688 49.7333 330.48 51.056C332.272 52.3787 334.448 53.04 337.008 53.04C339.653 53.04 341.85 52.3573 343.6 50.992C345.392 49.6267 346.714 47.8987 347.568 45.808C348.464 43.6747 348.912 41.4773 348.912 39.216C348.912 36.8693 348.442 34.672 347.504 32.624C346.608 30.5333 345.264 28.848 343.472 27.568C341.722 26.288 339.568 25.648 337.008 25.648C334.362 25.648 332.144 26.3307 330.352 27.696C328.602 29.0187 327.28 30.7253 326.384 32.816C325.53 34.9067 325.104 37.0827 325.104 39.344ZM384.929 62.32C381.942 62.32 379.126 61.7653 376.481 60.656C373.878 59.504 371.553 57.904 369.505 55.856C367.499 53.7653 365.921 51.312 364.769 48.496C363.659 45.6373 363.105 42.4587 363.105 38.96C363.105 35.8027 363.659 32.8587 364.769 30.128C365.921 27.3973 367.521 24.9867 369.569 22.896C371.659 20.8053 374.07 19.184 376.801 18.032C379.574 16.8373 382.561 16.24 385.761 16.24C389.942 16.24 393.611 17.136 396.769 18.928C399.969 20.72 402.358 23.1307 403.937 26.16L396.129 32.048C395.105 30.0427 393.611 28.464 391.649 27.312C389.686 26.16 387.595 25.584 385.377 25.584C383.073 25.584 381.046 26.2027 379.297 27.44C377.547 28.6347 376.182 30.2773 375.201 32.368C374.219 34.4587 373.729 36.784 373.729 39.344C373.729 41.9467 374.241 44.2933 375.265 46.384C376.289 48.432 377.697 50.0533 379.489 51.248C381.323 52.4 383.435 52.976 385.825 52.976C389.921 52.976 393.611 51.0987 396.897 47.344V45.872H388.065V38.256H405.601V62H396.897V57.52C393.441 60.72 389.451 62.32 384.929 62.32Z" fill="#48E5EF"/>
    <path class="change" d="M44.456 15.56V61H33.96V42.376H15.848V61H5.352V15.56H15.848V33.16H33.96V15.56H44.456ZM53.1645 61V15.56H63.6605V61H53.1645ZM72.352 61V15.56H82.848V35.144L99.488 15.56H111.264L94.24 35.848L112.416 61H100.384L87.584 42.76L82.848 47.624V61H72.352ZM127.246 15.56H138.574L154.19 61H143.438L139.918 50.824H125.774L122.318 61H111.566L127.246 15.56ZM138.19 43.592L132.878 26.12L127.438 43.592H138.19ZM158.665 61V15.56H179.145C181.278 15.56 183.241 16.008 185.033 16.904C186.867 17.7573 188.446 18.9307 189.769 20.424C191.091 21.8747 192.115 23.5173 192.841 25.352C193.609 27.1867 193.993 29.0427 193.993 30.92C193.993 33.736 193.31 36.3387 191.944 38.728C190.622 41.0747 188.83 42.8667 186.569 44.104L196.553 61H184.969L176.265 46.344H169.161V61H158.665ZM169.161 37.192H178.761C179.998 37.192 181.065 36.616 181.961 35.464C182.857 34.2693 183.305 32.7547 183.305 30.92C183.305 29.0853 182.793 27.6133 181.769 26.504C180.745 25.352 179.635 24.776 178.441 24.776H169.161V37.192ZM201.54 61V15.56H212.036V61H201.54ZM273.233 49.352C273.233 51.9547 272.529 54.1307 271.121 55.88C269.713 57.5867 267.835 58.8667 265.489 59.72C263.185 60.5733 260.625 61 257.809 61H235.665V15.56H260.945C263.078 15.56 264.913 16.136 266.449 17.288C267.985 18.3973 269.179 19.848 270.033 21.64C270.886 23.432 271.312 25.288 271.312 27.208C271.312 29.3413 270.758 31.3893 269.649 33.352C268.539 35.3147 266.918 36.7653 264.785 37.704C267.345 38.472 269.393 39.8373 270.929 41.8C272.465 43.7627 273.233 46.28 273.233 49.352ZM246.161 24.52V33.928H256.465C257.617 33.928 258.641 33.544 259.537 32.776C260.433 32.008 260.881 30.8133 260.881 29.192C260.881 27.6987 260.475 26.5467 259.665 25.736C258.897 24.9253 257.958 24.52 256.849 24.52H246.161ZM262.545 47.24C262.545 45.832 262.139 44.6373 261.329 43.656C260.518 42.6747 259.494 42.184 258.257 42.184H246.161V52.104H257.809C259.131 52.104 260.241 51.656 261.137 50.76C262.075 49.8213 262.545 48.648 262.545 47.24ZM279.415 61V15.56H289.911V51.784H311.927V61H279.415ZM335.944 61.384C332.573 61.384 329.501 60.744 326.728 59.464C323.997 58.1413 321.629 56.392 319.624 54.216C317.618 51.9973 316.082 49.5227 315.016 46.792C313.949 44.0187 313.416 41.16 313.416 38.216C313.416 35.2293 313.97 32.3707 315.08 29.64C316.232 26.8667 317.81 24.4133 319.816 22.28C321.864 20.104 324.274 18.3973 327.048 17.16C329.821 15.9227 332.85 15.304 336.136 15.304C339.506 15.304 342.557 15.9653 345.288 17.288C348.061 18.568 350.429 20.3173 352.392 22.536C354.397 24.7547 355.933 27.2507 357 30.024C358.066 32.7547 358.6 35.5493 358.6 38.408C358.6 41.3947 358.024 44.2747 356.872 47.048C355.762 49.7787 354.184 52.232 352.136 54.408C350.13 56.5413 347.741 58.248 344.968 59.528C342.237 60.7653 339.229 61.384 335.944 61.384ZM324.104 38.344C324.104 40.6907 324.552 42.9093 325.448 45C326.344 47.048 327.688 48.7333 329.48 50.056C331.272 51.3787 333.448 52.04 336.008 52.04C338.653 52.04 340.85 51.3573 342.6 49.992C344.392 48.6267 345.714 46.8987 346.568 44.808C347.464 42.6747 347.912 40.4773 347.912 38.216C347.912 35.8693 347.442 33.672 346.504 31.624C345.608 29.5333 344.264 27.848 342.472 26.568C340.722 25.288 338.568 24.648 336.008 24.648C333.362 24.648 331.144 25.3307 329.352 26.696C327.602 28.0187 326.28 29.7253 325.384 31.816C324.53 33.9067 324.104 36.0827 324.104 38.344ZM383.929 61.32C380.942 61.32 378.126 60.7653 375.481 59.656C372.878 58.504 370.553 56.904 368.505 54.856C366.499 52.7653 364.921 50.312 363.769 47.496C362.659 44.6373 362.105 41.4587 362.105 37.96C362.105 34.8027 362.659 31.8587 363.769 29.128C364.921 26.3973 366.521 23.9867 368.569 21.896C370.659 19.8053 373.07 18.184 375.801 17.032C378.574 15.8373 381.561 15.24 384.761 15.24C388.942 15.24 392.611 16.136 395.769 17.928C398.969 19.72 401.358 22.1307 402.937 25.16L395.129 31.048C394.105 29.0427 392.611 27.464 390.649 26.312C388.686 25.16 386.595 24.584 384.377 24.584C382.073 24.584 380.046 25.2027 378.297 26.44C376.547 27.6347 375.182 29.2773 374.201 31.368C373.219 33.4587 372.729 35.784 372.729 38.344C372.729 40.9467 373.241 43.2933 374.265 45.384C375.289 47.432 376.697 49.0533 378.489 50.248C380.323 51.4 382.435 51.976 384.825 51.976C388.921 51.976 392.611 50.0987 395.897 46.344V44.872H387.065V37.256H404.601V61H395.897V56.52C392.441 59.72 388.451 61.32 383.929 61.32Z" fill="#181818"/>
</svg>
