<svg width="112" height="381" viewBox="0 0 112 381" fill="none" xmlns="http://www.w3.org/2000/svg">
    <path d="M46.4648 20.56V66H35.9688V47.376H17.8568V66H7.36079V20.56H17.8568V38.16H35.9688V20.56H46.4648ZM55.1733 66V20.56H65.6693V66H55.1733ZM7.36079 141V95.56H17.8568V115.144L34.4968 95.56H46.2728L29.2488 115.848L47.4248 141H35.3928L22.5928 122.76L17.8568 127.624V141H7.36079ZM62.2543 95.56H73.5823L89.1983 141H78.4463L74.9263 130.824H60.7823L57.3263 141H46.5743L62.2543 95.56ZM73.1983 123.592L67.8863 106.12L62.4463 123.592H73.1983ZM7.36079 216V170.56H27.8408C29.9741 170.56 31.9368 171.008 33.7288 171.904C35.5635 172.757 37.1421 173.931 38.4648 175.424C39.7875 176.875 40.8115 178.517 41.5368 180.352C42.3048 182.187 42.6888 184.043 42.6888 185.92C42.6888 188.736 42.0061 191.339 40.6408 193.728C39.3181 196.075 37.5261 197.867 35.2648 199.104L45.2488 216H33.6648L24.9608 201.344H17.8568V216H7.36079ZM17.8568 192.192H27.4568C28.6941 192.192 29.7608 191.616 30.6568 190.464C31.5528 189.269 32.0008 187.755 32.0008 185.92C32.0008 184.085 31.4888 182.613 30.4648 181.504C29.4408 180.352 28.3315 179.776 27.1368 179.776H17.8568V192.192ZM50.2358 216V170.56H60.7318V216H50.2358ZM44.9288 279.352C44.9288 281.955 44.2248 284.131 42.8168 285.88C41.4088 287.587 39.5315 288.867 37.1848 289.72C34.8808 290.573 32.3208 291 29.5048 291H7.36079V245.56H32.6408C34.7741 245.56 36.6088 246.136 38.1448 247.288C39.6808 248.397 40.8755 249.848 41.7288 251.64C42.5821 253.432 43.0088 255.288 43.0088 257.208C43.0088 259.341 42.4541 261.389 41.3448 263.352C40.2355 265.315 38.6141 266.765 36.4808 267.704C39.0408 268.472 41.0888 269.837 42.6248 271.8C44.1608 273.763 44.9288 276.28 44.9288 279.352ZM17.8568 254.52V263.928H28.1608C29.3128 263.928 30.3368 263.544 31.2328 262.776C32.1288 262.008 32.5768 260.813 32.5768 259.192C32.5768 257.699 32.1715 256.547 31.3608 255.736C30.5928 254.925 29.6541 254.52 28.5448 254.52H17.8568ZM34.2408 277.24C34.2408 275.832 33.8355 274.637 33.0248 273.656C32.2141 272.675 31.1901 272.184 29.9528 272.184H17.8568V282.104H29.5048C30.8275 282.104 31.9368 281.656 32.8328 280.76C33.7715 279.821 34.2408 278.648 34.2408 277.24ZM51.1108 291V245.56H61.6068V281.784H83.6228V291H51.1108ZM27.2648 366.384C23.8941 366.384 20.8221 365.744 18.0488 364.464C15.3181 363.141 12.9501 361.392 10.9448 359.216C8.93946 356.997 7.40346 354.523 6.33679 351.792C5.27012 349.019 4.73679 346.16 4.73679 343.216C4.73679 340.229 5.29146 337.371 6.40079 334.64C7.55279 331.867 9.13146 329.413 11.1368 327.28C13.1848 325.104 15.5955 323.397 18.3688 322.16C21.1421 320.923 24.1715 320.304 27.4568 320.304C30.8275 320.304 33.8781 320.965 36.6088 322.288C39.3821 323.568 41.7501 325.317 43.7128 327.536C45.7181 329.755 47.2541 332.251 48.3208 335.024C49.3875 337.755 49.9208 340.549 49.9208 343.408C49.9208 346.395 49.3448 349.275 48.1928 352.048C47.0835 354.779 45.5048 357.232 43.4568 359.408C41.4515 361.541 39.0621 363.248 36.2888 364.528C33.5581 365.765 30.5501 366.384 27.2648 366.384ZM15.4248 343.344C15.4248 345.691 15.8728 347.909 16.7688 350C17.6648 352.048 19.0088 353.733 20.8008 355.056C22.5928 356.379 24.7688 357.04 27.3288 357.04C29.9741 357.04 32.1715 356.357 33.9208 354.992C35.7128 353.627 37.0355 351.899 37.8888 349.808C38.7848 347.675 39.2328 345.477 39.2328 343.216C39.2328 340.869 38.7635 338.672 37.8248 336.624C36.9288 334.533 35.5848 332.848 33.7928 331.568C32.0435 330.288 29.8888 329.648 27.3288 329.648C24.6835 329.648 22.4648 330.331 20.6728 331.696C18.9235 333.019 17.6008 334.725 16.7048 336.816C15.8515 338.907 15.4248 341.083 15.4248 343.344ZM75.2498 366.32C72.2631 366.32 69.4471 365.765 66.8018 364.656C64.1991 363.504 61.8738 361.904 59.8258 359.856C57.8205 357.765 56.2418 355.312 55.0898 352.496C53.9805 349.637 53.4258 346.459 53.4258 342.96C53.4258 339.803 53.9805 336.859 55.0898 334.128C56.2418 331.397 57.8418 328.987 59.8898 326.896C61.9805 324.805 64.3911 323.184 67.1218 322.032C69.8951 320.837 72.8818 320.24 76.0818 320.24C80.2631 320.24 83.9325 321.136 87.0898 322.928C90.2898 324.72 92.6791 327.131 94.2578 330.16L86.4498 336.048C85.4258 334.043 83.9325 332.464 81.9698 331.312C80.0071 330.16 77.9165 329.584 75.6978 329.584C73.3938 329.584 71.3671 330.203 69.6178 331.44C67.8685 332.635 66.5031 334.277 65.5218 336.368C64.5405 338.459 64.0498 340.784 64.0498 343.344C64.0498 345.947 64.5618 348.293 65.5858 350.384C66.6098 352.432 68.0178 354.053 69.8098 355.248C71.6445 356.4 73.7565 356.976 76.1458 356.976C80.2418 356.976 83.9325 355.099 87.2178 351.344V349.872H78.3858V342.256H95.9218V366H87.2178V361.52C83.7618 364.72 79.7725 366.32 75.2498 366.32Z" fill="#EF4884"/>
    <path d="M43.7917 14.56V60H33.2957V41.376H15.1837V60H4.68769V14.56H15.1837V32.16H33.2957V14.56H43.7917ZM52.5002 60V14.56H62.9962V60H52.5002ZM4.68769 135V89.56H15.1837V109.144L31.8237 89.56H43.5997L26.5757 109.848L44.7517 135H32.7197L19.9197 116.76L15.1837 121.624V135H4.68769ZM59.5812 89.56H70.9092L86.5252 135H75.7732L72.2532 124.824H58.1092L54.6532 135H43.9012L59.5812 89.56ZM70.5252 117.592L65.2132 100.12L59.7732 117.592H70.5252ZM4.68769 210V164.56H25.1677C27.301 164.56 29.2637 165.008 31.0557 165.904C32.8904 166.757 34.469 167.931 35.7917 169.424C37.1144 170.875 38.1384 172.517 38.8637 174.352C39.6317 176.187 40.0157 178.043 40.0157 179.92C40.0157 182.736 39.333 185.339 37.9677 187.728C36.645 190.075 34.853 191.867 32.5917 193.104L42.5757 210H30.9917L22.2877 195.344H15.1837V210H4.68769ZM15.1837 186.192H24.7837C26.021 186.192 27.0877 185.616 27.9837 184.464C28.8797 183.269 29.3277 181.755 29.3277 179.92C29.3277 178.085 28.8157 176.613 27.7917 175.504C26.7677 174.352 25.6584 173.776 24.4637 173.776H15.1837V186.192ZM47.5627 210V164.56H58.0587V210H47.5627ZM42.2557 273.352C42.2557 275.955 41.5517 278.131 40.1437 279.88C38.7357 281.587 36.8584 282.867 34.5117 283.72C32.2077 284.573 29.6477 285 26.8317 285H4.68769V239.56H29.9677C32.101 239.56 33.9357 240.136 35.4717 241.288C37.0077 242.397 38.2024 243.848 39.0557 245.64C39.909 247.432 40.3357 249.288 40.3357 251.208C40.3357 253.341 39.781 255.389 38.6717 257.352C37.5624 259.315 35.941 260.765 33.8077 261.704C36.3677 262.472 38.4157 263.837 39.9517 265.8C41.4877 267.763 42.2557 270.28 42.2557 273.352ZM15.1837 248.52V257.928H25.4877C26.6397 257.928 27.6637 257.544 28.5597 256.776C29.4557 256.008 29.9037 254.813 29.9037 253.192C29.9037 251.699 29.4984 250.547 28.6877 249.736C27.9197 248.925 26.981 248.52 25.8717 248.52H15.1837ZM31.5677 271.24C31.5677 269.832 31.1624 268.637 30.3517 267.656C29.541 266.675 28.517 266.184 27.2797 266.184H15.1837V276.104H26.8317C28.1544 276.104 29.2637 275.656 30.1597 274.76C31.0984 273.821 31.5677 272.648 31.5677 271.24ZM48.4377 285V239.56H58.9337V275.784H80.9497V285H48.4377ZM24.5917 360.384C21.221 360.384 18.149 359.744 15.3757 358.464C12.645 357.141 10.277 355.392 8.27169 353.216C6.26636 350.997 4.73036 348.523 3.66369 345.792C2.59703 343.019 2.06369 340.16 2.06369 337.216C2.06369 334.229 2.61836 331.371 3.72769 328.64C4.87969 325.867 6.45836 323.413 8.46369 321.28C10.5117 319.104 12.9224 317.397 15.6957 316.16C18.469 314.923 21.4984 314.304 24.7837 314.304C28.1544 314.304 31.205 314.965 33.9357 316.288C36.709 317.568 39.077 319.317 41.0397 321.536C43.045 323.755 44.581 326.251 45.6477 329.024C46.7144 331.755 47.2477 334.549 47.2477 337.408C47.2477 340.395 46.6717 343.275 45.5197 346.048C44.4104 348.779 42.8317 351.232 40.7837 353.408C38.7784 355.541 36.389 357.248 33.6157 358.528C30.885 359.765 27.877 360.384 24.5917 360.384ZM12.7517 337.344C12.7517 339.691 13.1997 341.909 14.0957 344C14.9917 346.048 16.3357 347.733 18.1277 349.056C19.9197 350.379 22.0957 351.04 24.6557 351.04C27.301 351.04 29.4984 350.357 31.2477 348.992C33.0397 347.627 34.3624 345.899 35.2157 343.808C36.1117 341.675 36.5597 339.477 36.5597 337.216C36.5597 334.869 36.0904 332.672 35.1517 330.624C34.2557 328.533 32.9117 326.848 31.1197 325.568C29.3704 324.288 27.2157 323.648 24.6557 323.648C22.0104 323.648 19.7917 324.331 17.9997 325.696C16.2504 327.019 14.9277 328.725 14.0317 330.816C13.1784 332.907 12.7517 335.083 12.7517 337.344ZM72.5767 360.32C69.59 360.32 66.774 359.765 64.1287 358.656C61.526 357.504 59.2007 355.904 57.1527 353.856C55.1474 351.765 53.5687 349.312 52.4167 346.496C51.3074 343.637 50.7527 340.459 50.7527 336.96C50.7527 333.803 51.3074 330.859 52.4167 328.128C53.5687 325.397 55.1687 322.987 57.2167 320.896C59.3074 318.805 61.718 317.184 64.4487 316.032C67.222 314.837 70.2087 314.24 73.4087 314.24C77.59 314.24 81.2594 315.136 84.4167 316.928C87.6167 318.72 90.006 321.131 91.5847 324.16L83.7767 330.048C82.7527 328.043 81.2594 326.464 79.2967 325.312C77.334 324.16 75.2434 323.584 73.0247 323.584C70.7207 323.584 68.694 324.203 66.9447 325.44C65.1954 326.635 63.83 328.277 62.8487 330.368C61.8674 332.459 61.3767 334.784 61.3767 337.344C61.3767 339.947 61.8887 342.293 62.9127 344.384C63.9367 346.432 65.3447 348.053 67.1367 349.248C68.9714 350.4 71.0834 350.976 73.4727 350.976C77.5687 350.976 81.2594 349.099 84.5447 345.344V343.872H75.7127V336.256H93.2487V360H84.5447V355.52C81.0887 358.72 77.0994 360.32 72.5767 360.32Z" fill="#48E5EF"/>
    <path d="M43.5239 19.56V65H33.0279V46.376H14.9159V65H4.41987V19.56H14.9159V37.16H33.0279V19.56H43.5239ZM52.2324 65V19.56H62.7284V65H52.2324ZM4.41987 140V94.56H14.9159V114.144L31.5559 94.56H43.3319L26.3079 114.848L44.4839 140H32.4519L19.6519 121.76L14.9159 126.624V140H4.41987ZM59.3134 94.56H70.6414L86.2574 140H75.5054L71.9854 129.824H57.8414L54.3854 140H43.6334L59.3134 94.56ZM70.2574 122.592L64.9454 105.12L59.5054 122.592H70.2574ZM4.41987 215V169.56H24.8999C27.0332 169.56 28.9959 170.008 30.7879 170.904C32.6225 171.757 34.2012 172.931 35.5239 174.424C36.8465 175.875 37.8705 177.517 38.5959 179.352C39.3639 181.187 39.7479 183.043 39.7479 184.92C39.7479 187.736 39.0652 190.339 37.6999 192.728C36.3772 195.075 34.5852 196.867 32.3239 198.104L42.3079 215H30.7239L22.0199 200.344H14.9159V215H4.41987ZM14.9159 191.192H24.5159C25.7532 191.192 26.8199 190.616 27.7159 189.464C28.6119 188.269 29.0599 186.755 29.0599 184.92C29.0599 183.085 28.5479 181.613 27.5239 180.504C26.4999 179.352 25.3905 178.776 24.1959 178.776H14.9159V191.192ZM47.2949 215V169.56H57.7909V215H47.2949ZM41.9879 278.352C41.9879 280.955 41.2839 283.131 39.8759 284.88C38.4679 286.587 36.5905 287.867 34.2439 288.72C31.9399 289.573 29.3799 290 26.5639 290H4.41987V244.56H29.6999C31.8332 244.56 33.6679 245.136 35.2039 246.288C36.7399 247.397 37.9345 248.848 38.7879 250.64C39.6412 252.432 40.0679 254.288 40.0679 256.208C40.0679 258.341 39.5132 260.389 38.4039 262.352C37.2945 264.315 35.6732 265.765 33.5399 266.704C36.0999 267.472 38.1479 268.837 39.6839 270.8C41.2199 272.763 41.9879 275.28 41.9879 278.352ZM14.9159 253.52V262.928H25.2199C26.3719 262.928 27.3959 262.544 28.2919 261.776C29.1879 261.008 29.6359 259.813 29.6359 258.192C29.6359 256.699 29.2305 255.547 28.4199 254.736C27.6519 253.925 26.7132 253.52 25.6039 253.52H14.9159ZM31.2999 276.24C31.2999 274.832 30.8945 273.637 30.0839 272.656C29.2732 271.675 28.2492 271.184 27.0119 271.184H14.9159V281.104H26.5639C27.8865 281.104 28.9959 280.656 29.8919 279.76C30.8305 278.821 31.2999 277.648 31.2999 276.24ZM48.1699 290V244.56H58.6659V280.784H80.6819V290H48.1699ZM24.3239 365.384C20.9532 365.384 17.8812 364.744 15.1079 363.464C12.3772 362.141 10.0092 360.392 8.00387 358.216C5.99854 355.997 4.46254 353.523 3.39587 350.792C2.3292 348.019 1.79587 345.16 1.79587 342.216C1.79587 339.229 2.35054 336.371 3.45987 333.64C4.61187 330.867 6.19054 328.413 8.19587 326.28C10.2439 324.104 12.6545 322.397 15.4279 321.16C18.2012 319.923 21.2305 319.304 24.5159 319.304C27.8865 319.304 30.9372 319.965 33.6679 321.288C36.4412 322.568 38.8092 324.317 40.7719 326.536C42.7772 328.755 44.3132 331.251 45.3799 334.024C46.4465 336.755 46.9799 339.549 46.9799 342.408C46.9799 345.395 46.4039 348.275 45.2519 351.048C44.1425 353.779 42.5639 356.232 40.5159 358.408C38.5105 360.541 36.1212 362.248 33.3479 363.528C30.6172 364.765 27.6092 365.384 24.3239 365.384ZM12.4839 342.344C12.4839 344.691 12.9319 346.909 13.8279 349C14.7239 351.048 16.0679 352.733 17.8599 354.056C19.6519 355.379 21.8279 356.04 24.3879 356.04C27.0332 356.04 29.2305 355.357 30.9799 353.992C32.7719 352.627 34.0945 350.899 34.9479 348.808C35.8439 346.675 36.2919 344.477 36.2919 342.216C36.2919 339.869 35.8225 337.672 34.8839 335.624C33.9879 333.533 32.6439 331.848 30.8519 330.568C29.1025 329.288 26.9479 328.648 24.3879 328.648C21.7425 328.648 19.5239 329.331 17.7319 330.696C15.9825 332.019 14.6599 333.725 13.7639 335.816C12.9105 337.907 12.4839 340.083 12.4839 342.344ZM72.3089 365.32C69.3222 365.32 66.5062 364.765 63.8609 363.656C61.2582 362.504 58.9329 360.904 56.8849 358.856C54.8795 356.765 53.3009 354.312 52.1489 351.496C51.0395 348.637 50.4849 345.459 50.4849 341.96C50.4849 338.803 51.0395 335.859 52.1489 333.128C53.3009 330.397 54.9009 327.987 56.9489 325.896C59.0395 323.805 61.4502 322.184 64.1809 321.032C66.9542 319.837 69.9409 319.24 73.1409 319.24C77.3222 319.24 80.9915 320.136 84.1489 321.928C87.3489 323.72 89.7382 326.131 91.3169 329.16L83.5089 335.048C82.4849 333.043 80.9915 331.464 79.0289 330.312C77.0662 329.16 74.9755 328.584 72.7569 328.584C70.4529 328.584 68.4262 329.203 66.6769 330.44C64.9275 331.635 63.5622 333.277 62.5809 335.368C61.5995 337.459 61.1089 339.784 61.1089 342.344C61.1089 344.947 61.6209 347.293 62.6449 349.384C63.6689 351.432 65.0769 353.053 66.8689 354.248C68.7035 355.4 70.8155 355.976 73.2049 355.976C77.3009 355.976 80.9915 354.099 84.2769 350.344V348.872H75.4449V341.256H92.9809V365H84.2769V360.52C80.8209 363.72 76.8315 365.32 72.3089 365.32Z" fill="#181818"/>
</svg>
