<svg width="412" height="80" viewBox="0 0 412 80" fill="none" xmlns="http://www.w3.org/2000/svg">
    <path d="M43.456 17.56V63H32.96V44.376H14.848V63H4.352V17.56H14.848V35.16H32.96V17.56H43.456ZM52.1645 63V17.56H62.6605V63H52.1645ZM71.352 63V17.56H81.848V37.144L98.488 17.56H110.264L93.24 37.848L111.416 63H99.384L86.584 44.76L81.848 49.624V63H71.352ZM126.246 17.56H137.574L153.19 63H142.438L138.918 52.824H124.774L121.318 63H110.566L126.246 17.56ZM137.19 45.592L131.878 28.12L126.438 45.592H137.19ZM157.665 63V17.56H178.145C180.278 17.56 182.241 18.008 184.033 18.904C185.867 19.7573 187.446 20.9307 188.769 22.424C190.091 23.8747 191.115 25.5173 191.841 27.352C192.609 29.1867 192.993 31.0427 192.993 32.92C192.993 35.736 192.31 38.3387 190.944 40.728C189.622 43.0747 187.83 44.8667 185.569 46.104L195.553 63H183.969L175.265 48.344H168.161V63H157.665ZM168.161 39.192H177.761C178.998 39.192 180.065 38.616 180.961 37.464C181.857 36.2693 182.305 34.7547 182.305 32.92C182.305 31.0853 181.793 29.6133 180.769 28.504C179.745 27.352 178.635 26.776 177.441 26.776H168.161V39.192ZM200.54 63V17.56H211.036V63H200.54ZM272.233 51.352C272.233 53.9547 271.529 56.1307 270.121 57.88C268.713 59.5867 266.835 60.8667 264.489 61.72C262.185 62.5733 259.625 63 256.809 63H234.665V17.56H259.945C262.078 17.56 263.913 18.136 265.449 19.288C266.985 20.3973 268.179 21.848 269.033 23.64C269.886 25.432 270.312 27.288 270.312 29.208C270.312 31.3413 269.758 33.3893 268.649 35.352C267.539 37.3147 265.918 38.7653 263.785 39.704C266.345 40.472 268.393 41.8373 269.929 43.8C271.465 45.7627 272.233 48.28 272.233 51.352ZM245.161 26.52V35.928H255.465C256.617 35.928 257.641 35.544 258.537 34.776C259.433 34.008 259.881 32.8133 259.881 31.192C259.881 29.6987 259.475 28.5467 258.665 27.736C257.897 26.9253 256.958 26.52 255.849 26.52H245.161ZM261.545 49.24C261.545 47.832 261.139 46.6373 260.329 45.656C259.518 44.6747 258.494 44.184 257.257 44.184H245.161V54.104H256.809C258.131 54.104 259.241 53.656 260.137 52.76C261.075 51.8213 261.545 50.648 261.545 49.24ZM278.415 63V17.56H288.911V53.784H310.927V63H278.415ZM334.944 63.384C331.573 63.384 328.501 62.744 325.728 61.464C322.997 60.1413 320.629 58.392 318.624 56.216C316.618 53.9973 315.082 51.5227 314.016 48.792C312.949 46.0187 312.416 43.16 312.416 40.216C312.416 37.2293 312.97 34.3707 314.08 31.64C315.232 28.8667 316.81 26.4133 318.816 24.28C320.864 22.104 323.274 20.3973 326.048 19.16C328.821 17.9227 331.85 17.304 335.136 17.304C338.506 17.304 341.557 17.9653 344.288 19.288C347.061 20.568 349.429 22.3173 351.392 24.536C353.397 26.7547 354.933 29.2507 356 32.024C357.066 34.7547 357.6 37.5493 357.6 40.408C357.6 43.3947 357.024 46.2747 355.872 49.048C354.762 51.7787 353.184 54.232 351.136 56.408C349.13 58.5413 346.741 60.248 343.968 61.528C341.237 62.7653 338.229 63.384 334.944 63.384ZM323.104 40.344C323.104 42.6907 323.552 44.9093 324.448 47C325.344 49.048 326.688 50.7333 328.48 52.056C330.272 53.3787 332.448 54.04 335.008 54.04C337.653 54.04 339.85 53.3573 341.6 51.992C343.392 50.6267 344.714 48.8987 345.568 46.808C346.464 44.6747 346.912 42.4773 346.912 40.216C346.912 37.8693 346.442 35.672 345.504 33.624C344.608 31.5333 343.264 29.848 341.472 28.568C339.722 27.288 337.568 26.648 335.008 26.648C332.362 26.648 330.144 27.3307 328.352 28.696C326.602 30.0187 325.28 31.7253 324.384 33.816C323.53 35.9067 323.104 38.0827 323.104 40.344ZM382.929 63.32C379.942 63.32 377.126 62.7653 374.481 61.656C371.878 60.504 369.553 58.904 367.505 56.856C365.499 54.7653 363.921 52.312 362.769 49.496C361.659 46.6373 361.105 43.4587 361.105 39.96C361.105 36.8027 361.659 33.8587 362.769 31.128C363.921 28.3973 365.521 25.9867 367.569 23.896C369.659 21.8053 372.07 20.184 374.801 19.032C377.574 17.8373 380.561 17.24 383.761 17.24C387.942 17.24 391.611 18.136 394.769 19.928C397.969 21.72 400.358 24.1307 401.937 27.16L394.129 33.048C393.105 31.0427 391.611 29.464 389.649 28.312C387.686 27.16 385.595 26.584 383.377 26.584C381.073 26.584 379.046 27.2027 377.297 28.44C375.547 29.6347 374.182 31.2773 373.201 33.368C372.219 35.4587 371.729 37.784 371.729 40.344C371.729 42.9467 372.241 45.2933 373.265 47.384C374.289 49.432 375.697 51.0533 377.489 52.248C379.323 53.4 381.435 53.976 383.825 53.976C387.921 53.976 391.611 52.0987 394.897 48.344V46.872H386.065V39.256H403.601V63H394.897V58.52C391.441 61.72 387.451 63.32 382.929 63.32Z" fill="#EF4884"/>
    <path d="M48.456 14.56V60H37.96V41.376H19.848V60H9.352V14.56H19.848V32.16H37.96V14.56H48.456ZM57.1645 60V14.56H67.6605V60H57.1645ZM76.352 60V14.56H86.848V34.144L103.488 14.56H115.264L98.24 34.848L116.416 60H104.384L91.584 41.76L86.848 46.624V60H76.352ZM131.246 14.56H142.574L158.19 60H147.438L143.918 49.824H129.774L126.318 60H115.566L131.246 14.56ZM142.19 42.592L136.878 25.12L131.438 42.592H142.19ZM162.665 60V14.56H183.145C185.278 14.56 187.241 15.008 189.033 15.904C190.867 16.7573 192.446 17.9307 193.769 19.424C195.091 20.8747 196.115 22.5173 196.841 24.352C197.609 26.1867 197.993 28.0427 197.993 29.92C197.993 32.736 197.31 35.3387 195.944 37.728C194.622 40.0747 192.83 41.8667 190.569 43.104L200.553 60H188.969L180.265 45.344H173.161V60H162.665ZM173.161 36.192H182.761C183.998 36.192 185.065 35.616 185.961 34.464C186.857 33.2693 187.305 31.7547 187.305 29.92C187.305 28.0853 186.793 26.6133 185.769 25.504C184.745 24.352 183.635 23.776 182.441 23.776H173.161V36.192ZM205.54 60V14.56H216.036V60H205.54ZM277.233 48.352C277.233 50.9547 276.529 53.1307 275.121 54.88C273.713 56.5867 271.835 57.8667 269.489 58.72C267.185 59.5733 264.625 60 261.809 60H239.665V14.56H264.945C267.078 14.56 268.913 15.136 270.449 16.288C271.985 17.3973 273.179 18.848 274.033 20.64C274.886 22.432 275.312 24.288 275.312 26.208C275.312 28.3413 274.758 30.3893 273.649 32.352C272.539 34.3147 270.918 35.7653 268.785 36.704C271.345 37.472 273.393 38.8373 274.929 40.8C276.465 42.7627 277.233 45.28 277.233 48.352ZM250.161 23.52V32.928H260.465C261.617 32.928 262.641 32.544 263.537 31.776C264.433 31.008 264.881 29.8133 264.881 28.192C264.881 26.6987 264.475 25.5467 263.665 24.736C262.897 23.9253 261.958 23.52 260.849 23.52H250.161ZM266.545 46.24C266.545 44.832 266.139 43.6373 265.329 42.656C264.518 41.6747 263.494 41.184 262.257 41.184H250.161V51.104H261.809C263.131 51.104 264.241 50.656 265.137 49.76C266.075 48.8213 266.545 47.648 266.545 46.24ZM283.415 60V14.56H293.911V50.784H315.927V60H283.415ZM339.944 60.384C336.573 60.384 333.501 59.744 330.728 58.464C327.997 57.1413 325.629 55.392 323.624 53.216C321.618 50.9973 320.082 48.5227 319.016 45.792C317.949 43.0187 317.416 40.16 317.416 37.216C317.416 34.2293 317.97 31.3707 319.08 28.64C320.232 25.8667 321.81 23.4133 323.816 21.28C325.864 19.104 328.274 17.3973 331.048 16.16C333.821 14.9227 336.85 14.304 340.136 14.304C343.506 14.304 346.557 14.9653 349.288 16.288C352.061 17.568 354.429 19.3173 356.392 21.536C358.397 23.7547 359.933 26.2507 361 29.024C362.066 31.7547 362.6 34.5493 362.6 37.408C362.6 40.3947 362.024 43.2747 360.872 46.048C359.762 48.7787 358.184 51.232 356.136 53.408C354.13 55.5413 351.741 57.248 348.968 58.528C346.237 59.7653 343.229 60.384 339.944 60.384ZM328.104 37.344C328.104 39.6907 328.552 41.9093 329.448 44C330.344 46.048 331.688 47.7333 333.48 49.056C335.272 50.3787 337.448 51.04 340.008 51.04C342.653 51.04 344.85 50.3573 346.6 48.992C348.392 47.6267 349.714 45.8987 350.568 43.808C351.464 41.6747 351.912 39.4773 351.912 37.216C351.912 34.8693 351.442 32.672 350.504 30.624C349.608 28.5333 348.264 26.848 346.472 25.568C344.722 24.288 342.568 23.648 340.008 23.648C337.362 23.648 335.144 24.3307 333.352 25.696C331.602 27.0187 330.28 28.7253 329.384 30.816C328.53 32.9067 328.104 35.0827 328.104 37.344ZM387.929 60.32C384.942 60.32 382.126 59.7653 379.481 58.656C376.878 57.504 374.553 55.904 372.505 53.856C370.499 51.7653 368.921 49.312 367.769 46.496C366.659 43.6373 366.105 40.4587 366.105 36.96C366.105 33.8027 366.659 30.8587 367.769 28.128C368.921 25.3973 370.521 22.9867 372.569 20.896C374.659 18.8053 377.07 17.184 379.801 16.032C382.574 14.8373 385.561 14.24 388.761 14.24C392.942 14.24 396.611 15.136 399.769 16.928C402.969 18.72 405.358 21.1307 406.937 24.16L399.129 30.048C398.105 28.0427 396.611 26.464 394.649 25.312C392.686 24.16 390.595 23.584 388.377 23.584C386.073 23.584 384.046 24.2027 382.297 25.44C380.547 26.6347 379.182 28.2773 378.201 30.368C377.219 32.4587 376.729 34.784 376.729 37.344C376.729 39.9467 377.241 42.2933 378.265 44.384C379.289 46.432 380.697 48.0533 382.489 49.248C384.323 50.4 386.435 50.976 388.825 50.976C392.921 50.976 396.611 49.0987 399.897 45.344V43.872H391.065V36.256H408.601V60H399.897V55.52C396.441 58.72 392.451 60.32 387.929 60.32Z" fill="#48E5EF"/>
    <path d="M47.456 19.56V65H36.96V46.376H18.848V65H8.352V19.56H18.848V37.16H36.96V19.56H47.456ZM56.1645 65V19.56H66.6605V65H56.1645ZM75.352 65V19.56H85.848V39.144L102.488 19.56H114.264L97.24 39.848L115.416 65H103.384L90.584 46.76L85.848 51.624V65H75.352ZM130.246 19.56H141.574L157.19 65H146.438L142.918 54.824H128.774L125.318 65H114.566L130.246 19.56ZM141.19 47.592L135.878 30.12L130.438 47.592H141.19ZM161.665 65V19.56H182.145C184.278 19.56 186.241 20.008 188.033 20.904C189.867 21.7573 191.446 22.9307 192.769 24.424C194.091 25.8747 195.115 27.5173 195.841 29.352C196.609 31.1867 196.993 33.0427 196.993 34.92C196.993 37.736 196.31 40.3387 194.944 42.728C193.622 45.0747 191.83 46.8667 189.569 48.104L199.553 65H187.969L179.265 50.344H172.161V65H161.665ZM172.161 41.192H181.761C182.998 41.192 184.065 40.616 184.961 39.464C185.857 38.2693 186.305 36.7547 186.305 34.92C186.305 33.0853 185.793 31.6133 184.769 30.504C183.745 29.352 182.635 28.776 181.441 28.776H172.161V41.192ZM204.54 65V19.56H215.036V65H204.54ZM276.233 53.352C276.233 55.9547 275.529 58.1307 274.121 59.88C272.713 61.5867 270.835 62.8667 268.489 63.72C266.185 64.5733 263.625 65 260.809 65H238.665V19.56H263.945C266.078 19.56 267.913 20.136 269.449 21.288C270.985 22.3973 272.179 23.848 273.033 25.64C273.886 27.432 274.312 29.288 274.312 31.208C274.312 33.3413 273.758 35.3893 272.649 37.352C271.539 39.3147 269.918 40.7653 267.785 41.704C270.345 42.472 272.393 43.8373 273.929 45.8C275.465 47.7627 276.233 50.28 276.233 53.352ZM249.161 28.52V37.928H259.465C260.617 37.928 261.641 37.544 262.537 36.776C263.433 36.008 263.881 34.8133 263.881 33.192C263.881 31.6987 263.475 30.5467 262.665 29.736C261.897 28.9253 260.958 28.52 259.849 28.52H249.161ZM265.545 51.24C265.545 49.832 265.139 48.6373 264.329 47.656C263.518 46.6747 262.494 46.184 261.257 46.184H249.161V56.104H260.809C262.131 56.104 263.241 55.656 264.137 54.76C265.075 53.8213 265.545 52.648 265.545 51.24ZM282.415 65V19.56H292.911V55.784H314.927V65H282.415ZM338.944 65.384C335.573 65.384 332.501 64.744 329.728 63.464C326.997 62.1413 324.629 60.392 322.624 58.216C320.618 55.9973 319.082 53.5227 318.016 50.792C316.949 48.0187 316.416 45.16 316.416 42.216C316.416 39.2293 316.97 36.3707 318.08 33.64C319.232 30.8667 320.81 28.4133 322.816 26.28C324.864 24.104 327.274 22.3973 330.048 21.16C332.821 19.9227 335.85 19.304 339.136 19.304C342.506 19.304 345.557 19.9653 348.288 21.288C351.061 22.568 353.429 24.3173 355.392 26.536C357.397 28.7547 358.933 31.2507 360 34.024C361.066 36.7547 361.6 39.5493 361.6 42.408C361.6 45.3947 361.024 48.2747 359.872 51.048C358.762 53.7787 357.184 56.232 355.136 58.408C353.13 60.5413 350.741 62.248 347.968 63.528C345.237 64.7653 342.229 65.384 338.944 65.384ZM327.104 42.344C327.104 44.6907 327.552 46.9093 328.448 49C329.344 51.048 330.688 52.7333 332.48 54.056C334.272 55.3787 336.448 56.04 339.008 56.04C341.653 56.04 343.85 55.3573 345.6 53.992C347.392 52.6267 348.714 50.8987 349.568 48.808C350.464 46.6747 350.912 44.4773 350.912 42.216C350.912 39.8693 350.442 37.672 349.504 35.624C348.608 33.5333 347.264 31.848 345.472 30.568C343.722 29.288 341.568 28.648 339.008 28.648C336.362 28.648 334.144 29.3307 332.352 30.696C330.602 32.0187 329.28 33.7253 328.384 35.816C327.53 37.9067 327.104 40.0827 327.104 42.344ZM386.929 65.32C383.942 65.32 381.126 64.7653 378.481 63.656C375.878 62.504 373.553 60.904 371.505 58.856C369.499 56.7653 367.921 54.312 366.769 51.496C365.659 48.6373 365.105 45.4587 365.105 41.96C365.105 38.8027 365.659 35.8587 366.769 33.128C367.921 30.3973 369.521 27.9867 371.569 25.896C373.659 23.8053 376.07 22.184 378.801 21.032C381.574 19.8373 384.561 19.24 387.761 19.24C391.942 19.24 395.611 20.136 398.769 21.928C401.969 23.72 404.358 26.1307 405.937 29.16L398.129 35.048C397.105 33.0427 395.611 31.464 393.649 30.312C391.686 29.16 389.595 28.584 387.377 28.584C385.073 28.584 383.046 29.2027 381.297 30.44C379.547 31.6347 378.182 33.2773 377.201 35.368C376.219 37.4587 375.729 39.784 375.729 42.344C375.729 44.9467 376.241 47.2933 377.265 49.384C378.289 51.432 379.697 53.0533 381.489 54.248C383.323 55.4 385.435 55.976 387.825 55.976C391.921 55.976 395.611 54.0987 398.897 50.344V48.872H390.065V41.256H407.601V65H398.897V60.52C395.441 63.72 391.451 65.32 386.929 65.32Z" fill="#181818"/>
</svg>
