<svg width="111" height="377" viewBox="0 0 111 377" fill="none" xmlns="http://www.w3.org/2000/svg">
    <path d="M45.4648 16.56V62H34.9688V43.376H16.8568V62H6.36079V16.56H16.8568V34.16H34.9688V16.56H45.4648ZM54.1733 62V16.56H64.6693V62H54.1733ZM6.36079 137V91.56H16.8568V111.144L33.4968 91.56H45.2728L28.2488 111.848L46.4248 137H34.3928L21.5928 118.76L16.8568 123.624V137H6.36079ZM61.2543 91.56H72.5823L88.1983 137H77.4463L73.9263 126.824H59.7823L56.3263 137H45.5743L61.2543 91.56ZM72.1983 119.592L66.8863 102.12L61.4463 119.592H72.1983ZM6.36079 212V166.56H26.8408C28.9741 166.56 30.9368 167.008 32.7288 167.904C34.5635 168.757 36.1421 169.931 37.4648 171.424C38.7875 172.875 39.8115 174.517 40.5368 176.352C41.3048 178.187 41.6888 180.043 41.6888 181.92C41.6888 184.736 41.0061 187.339 39.6408 189.728C38.3181 192.075 36.5261 193.867 34.2648 195.104L44.2488 212H32.6648L23.9608 197.344H16.8568V212H6.36079ZM16.8568 188.192H26.4568C27.6941 188.192 28.7608 187.616 29.6568 186.464C30.5528 185.269 31.0008 183.755 31.0008 181.92C31.0008 180.085 30.4888 178.613 29.4648 177.504C28.4408 176.352 27.3315 175.776 26.1368 175.776H16.8568V188.192ZM49.2358 212V166.56H59.7318V212H49.2358ZM43.9288 275.352C43.9288 277.955 43.2248 280.131 41.8168 281.88C40.4088 283.587 38.5315 284.867 36.1848 285.72C33.8808 286.573 31.3208 287 28.5048 287H6.36079V241.56H31.6408C33.7741 241.56 35.6088 242.136 37.1448 243.288C38.6808 244.397 39.8755 245.848 40.7288 247.64C41.5821 249.432 42.0088 251.288 42.0088 253.208C42.0088 255.341 41.4541 257.389 40.3448 259.352C39.2355 261.315 37.6141 262.765 35.4808 263.704C38.0408 264.472 40.0888 265.837 41.6248 267.8C43.1608 269.763 43.9288 272.28 43.9288 275.352ZM16.8568 250.52V259.928H27.1608C28.3128 259.928 29.3368 259.544 30.2328 258.776C31.1288 258.008 31.5768 256.813 31.5768 255.192C31.5768 253.699 31.1715 252.547 30.3608 251.736C29.5928 250.925 28.6541 250.52 27.5448 250.52H16.8568ZM33.2408 273.24C33.2408 271.832 32.8355 270.637 32.0248 269.656C31.2141 268.675 30.1901 268.184 28.9528 268.184H16.8568V278.104H28.5048C29.8275 278.104 30.9368 277.656 31.8328 276.76C32.7715 275.821 33.2408 274.648 33.2408 273.24ZM50.1108 287V241.56H60.6068V277.784H82.6228V287H50.1108ZM26.2648 362.384C22.8941 362.384 19.8221 361.744 17.0488 360.464C14.3181 359.141 11.9501 357.392 9.94479 355.216C7.93946 352.997 6.40346 350.523 5.33679 347.792C4.27012 345.019 3.73679 342.16 3.73679 339.216C3.73679 336.229 4.29146 333.371 5.40079 330.64C6.55279 327.867 8.13146 325.413 10.1368 323.28C12.1848 321.104 14.5955 319.397 17.3688 318.16C20.1421 316.923 23.1715 316.304 26.4568 316.304C29.8275 316.304 32.8781 316.965 35.6088 318.288C38.3821 319.568 40.7501 321.317 42.7128 323.536C44.7181 325.755 46.2541 328.251 47.3208 331.024C48.3875 333.755 48.9208 336.549 48.9208 339.408C48.9208 342.395 48.3448 345.275 47.1928 348.048C46.0835 350.779 44.5048 353.232 42.4568 355.408C40.4515 357.541 38.0621 359.248 35.2888 360.528C32.5581 361.765 29.5501 362.384 26.2648 362.384ZM14.4248 339.344C14.4248 341.691 14.8728 343.909 15.7688 346C16.6648 348.048 18.0088 349.733 19.8008 351.056C21.5928 352.379 23.7688 353.04 26.3288 353.04C28.9741 353.04 31.1715 352.357 32.9208 350.992C34.7128 349.627 36.0355 347.899 36.8888 345.808C37.7848 343.675 38.2328 341.477 38.2328 339.216C38.2328 336.869 37.7635 334.672 36.8248 332.624C35.9288 330.533 34.5848 328.848 32.7928 327.568C31.0435 326.288 28.8888 325.648 26.3288 325.648C23.6835 325.648 21.4648 326.331 19.6728 327.696C17.9235 329.019 16.6008 330.725 15.7048 332.816C14.8515 334.907 14.4248 337.083 14.4248 339.344ZM74.2498 362.32C71.2631 362.32 68.4471 361.765 65.8018 360.656C63.1991 359.504 60.8738 357.904 58.8258 355.856C56.8205 353.765 55.2418 351.312 54.0898 348.496C52.9805 345.637 52.4258 342.459 52.4258 338.96C52.4258 335.803 52.9805 332.859 54.0898 330.128C55.2418 327.397 56.8418 324.987 58.8898 322.896C60.9805 320.805 63.3911 319.184 66.1218 318.032C68.8951 316.837 71.8818 316.24 75.0818 316.24C79.2631 316.24 82.9325 317.136 86.0898 318.928C89.2898 320.72 91.6791 323.131 93.2578 326.16L85.4498 332.048C84.4258 330.043 82.9325 328.464 80.9698 327.312C79.0071 326.16 76.9165 325.584 74.6978 325.584C72.3938 325.584 70.3671 326.203 68.6178 327.44C66.8685 328.635 65.5031 330.277 64.5218 332.368C63.5405 334.459 63.0498 336.784 63.0498 339.344C63.0498 341.947 63.5618 344.293 64.5858 346.384C65.6098 348.432 67.0178 350.053 68.8098 351.248C70.6445 352.4 72.7565 352.976 75.1458 352.976C79.2418 352.976 82.9325 351.099 86.2178 347.344V345.872H77.3858V338.256H94.9218V362H86.2178V357.52C82.7618 360.72 78.7725 362.32 74.2498 362.32Z" fill="#EF4884"/>
    <path d="M43.7917 14.56V60H33.2957V41.376H15.1837V60H4.68769V14.56H15.1837V32.16H33.2957V14.56H43.7917ZM52.5002 60V14.56H62.9962V60H52.5002ZM4.68769 135V89.56H15.1837V109.144L31.8237 89.56H43.5997L26.5757 109.848L44.7517 135H32.7197L19.9197 116.76L15.1837 121.624V135H4.68769ZM59.5812 89.56H70.9092L86.5252 135H75.7732L72.2532 124.824H58.1092L54.6532 135H43.9012L59.5812 89.56ZM70.5252 117.592L65.2132 100.12L59.7732 117.592H70.5252ZM4.68769 210V164.56H25.1677C27.301 164.56 29.2637 165.008 31.0557 165.904C32.8904 166.757 34.469 167.931 35.7917 169.424C37.1144 170.875 38.1384 172.517 38.8637 174.352C39.6317 176.187 40.0157 178.043 40.0157 179.92C40.0157 182.736 39.333 185.339 37.9677 187.728C36.645 190.075 34.853 191.867 32.5917 193.104L42.5757 210H30.9917L22.2877 195.344H15.1837V210H4.68769ZM15.1837 186.192H24.7837C26.021 186.192 27.0877 185.616 27.9837 184.464C28.8797 183.269 29.3277 181.755 29.3277 179.92C29.3277 178.085 28.8157 176.613 27.7917 175.504C26.7677 174.352 25.6584 173.776 24.4637 173.776H15.1837V186.192ZM47.5627 210V164.56H58.0587V210H47.5627ZM42.2557 273.352C42.2557 275.955 41.5517 278.131 40.1437 279.88C38.7357 281.587 36.8584 282.867 34.5117 283.72C32.2077 284.573 29.6477 285 26.8317 285H4.68769V239.56H29.9677C32.101 239.56 33.9357 240.136 35.4717 241.288C37.0077 242.397 38.2024 243.848 39.0557 245.64C39.909 247.432 40.3357 249.288 40.3357 251.208C40.3357 253.341 39.781 255.389 38.6717 257.352C37.5624 259.315 35.941 260.765 33.8077 261.704C36.3677 262.472 38.4157 263.837 39.9517 265.8C41.4877 267.763 42.2557 270.28 42.2557 273.352ZM15.1837 248.52V257.928H25.4877C26.6397 257.928 27.6637 257.544 28.5597 256.776C29.4557 256.008 29.9037 254.813 29.9037 253.192C29.9037 251.699 29.4984 250.547 28.6877 249.736C27.9197 248.925 26.981 248.52 25.8717 248.52H15.1837ZM31.5677 271.24C31.5677 269.832 31.1624 268.637 30.3517 267.656C29.541 266.675 28.517 266.184 27.2797 266.184H15.1837V276.104H26.8317C28.1544 276.104 29.2637 275.656 30.1597 274.76C31.0984 273.821 31.5677 272.648 31.5677 271.24ZM48.4377 285V239.56H58.9337V275.784H80.9497V285H48.4377ZM24.5917 360.384C21.221 360.384 18.149 359.744 15.3757 358.464C12.645 357.141 10.277 355.392 8.27169 353.216C6.26636 350.997 4.73036 348.523 3.66369 345.792C2.59703 343.019 2.06369 340.16 2.06369 337.216C2.06369 334.229 2.61836 331.371 3.72769 328.64C4.87969 325.867 6.45836 323.413 8.46369 321.28C10.5117 319.104 12.9224 317.397 15.6957 316.16C18.469 314.923 21.4984 314.304 24.7837 314.304C28.1544 314.304 31.205 314.965 33.9357 316.288C36.709 317.568 39.077 319.317 41.0397 321.536C43.045 323.755 44.581 326.251 45.6477 329.024C46.7144 331.755 47.2477 334.549 47.2477 337.408C47.2477 340.395 46.6717 343.275 45.5197 346.048C44.4104 348.779 42.8317 351.232 40.7837 353.408C38.7784 355.541 36.389 357.248 33.6157 358.528C30.885 359.765 27.877 360.384 24.5917 360.384ZM12.7517 337.344C12.7517 339.691 13.1997 341.909 14.0957 344C14.9917 346.048 16.3357 347.733 18.1277 349.056C19.9197 350.379 22.0957 351.04 24.6557 351.04C27.301 351.04 29.4984 350.357 31.2477 348.992C33.0397 347.627 34.3624 345.899 35.2157 343.808C36.1117 341.675 36.5597 339.477 36.5597 337.216C36.5597 334.869 36.0904 332.672 35.1517 330.624C34.2557 328.533 32.9117 326.848 31.1197 325.568C29.3704 324.288 27.2157 323.648 24.6557 323.648C22.0104 323.648 19.7917 324.331 17.9997 325.696C16.2504 327.019 14.9277 328.725 14.0317 330.816C13.1784 332.907 12.7517 335.083 12.7517 337.344ZM72.5767 360.32C69.59 360.32 66.774 359.765 64.1287 358.656C61.526 357.504 59.2007 355.904 57.1527 353.856C55.1474 351.765 53.5687 349.312 52.4167 346.496C51.3074 343.637 50.7527 340.459 50.7527 336.96C50.7527 333.803 51.3074 330.859 52.4167 328.128C53.5687 325.397 55.1687 322.987 57.2167 320.896C59.3074 318.805 61.718 317.184 64.4487 316.032C67.222 314.837 70.2087 314.24 73.4087 314.24C77.59 314.24 81.2594 315.136 84.4167 316.928C87.6167 318.72 90.006 321.131 91.5847 324.16L83.7767 330.048C82.7527 328.043 81.2594 326.464 79.2967 325.312C77.334 324.16 75.2434 323.584 73.0247 323.584C70.7207 323.584 68.694 324.203 66.9447 325.44C65.1954 326.635 63.83 328.277 62.8487 330.368C61.8674 332.459 61.3767 334.784 61.3767 337.344C61.3767 339.947 61.8887 342.293 62.9127 344.384C63.9367 346.432 65.3447 348.053 67.1367 349.248C68.9714 350.4 71.0834 350.976 73.4727 350.976C77.5687 350.976 81.2594 349.099 84.5447 345.344V343.872H75.7127V336.256H93.2487V360H84.5447V355.52C81.0887 358.72 77.0994 360.32 72.5767 360.32Z" fill="#48E5EF"/>
    <path d="M44.5239 15.56V61H34.0279V42.376H15.9159V61H5.41987V15.56H15.9159V33.16H34.0279V15.56H44.5239ZM53.2324 61V15.56H63.7284V61H53.2324ZM5.41987 136V90.56H15.9159V110.144L32.5559 90.56H44.3319L27.3079 110.848L45.4839 136H33.4519L20.6519 117.76L15.9159 122.624V136H5.41987ZM60.3134 90.56H71.6414L87.2574 136H76.5054L72.9854 125.824H58.8414L55.3854 136H44.6334L60.3134 90.56ZM71.2574 118.592L65.9454 101.12L60.5054 118.592H71.2574ZM5.41987 211V165.56H25.8999C28.0332 165.56 29.9959 166.008 31.7879 166.904C33.6225 167.757 35.2012 168.931 36.5239 170.424C37.8465 171.875 38.8705 173.517 39.5959 175.352C40.3639 177.187 40.7479 179.043 40.7479 180.92C40.7479 183.736 40.0652 186.339 38.6999 188.728C37.3772 191.075 35.5852 192.867 33.3239 194.104L43.3079 211H31.7239L23.0199 196.344H15.9159V211H5.41987ZM15.9159 187.192H25.5159C26.7532 187.192 27.8199 186.616 28.7159 185.464C29.6119 184.269 30.0599 182.755 30.0599 180.92C30.0599 179.085 29.5479 177.613 28.5239 176.504C27.4999 175.352 26.3905 174.776 25.1959 174.776H15.9159V187.192ZM48.2949 211V165.56H58.7909V211H48.2949ZM42.9879 274.352C42.9879 276.955 42.2839 279.131 40.8759 280.88C39.4679 282.587 37.5905 283.867 35.2439 284.72C32.9399 285.573 30.3799 286 27.5639 286H5.41987V240.56H30.6999C32.8332 240.56 34.6679 241.136 36.2039 242.288C37.7399 243.397 38.9345 244.848 39.7879 246.64C40.6412 248.432 41.0679 250.288 41.0679 252.208C41.0679 254.341 40.5132 256.389 39.4039 258.352C38.2945 260.315 36.6732 261.765 34.5399 262.704C37.0999 263.472 39.1479 264.837 40.6839 266.8C42.2199 268.763 42.9879 271.28 42.9879 274.352ZM15.9159 249.52V258.928H26.2199C27.3719 258.928 28.3959 258.544 29.2919 257.776C30.1879 257.008 30.6359 255.813 30.6359 254.192C30.6359 252.699 30.2305 251.547 29.4199 250.736C28.6519 249.925 27.7132 249.52 26.6039 249.52H15.9159ZM32.2999 272.24C32.2999 270.832 31.8945 269.637 31.0839 268.656C30.2732 267.675 29.2492 267.184 28.0119 267.184H15.9159V277.104H27.5639C28.8865 277.104 29.9959 276.656 30.8919 275.76C31.8305 274.821 32.2999 273.648 32.2999 272.24ZM49.1699 286V240.56H59.6659V276.784H81.6819V286H49.1699ZM25.3239 361.384C21.9532 361.384 18.8812 360.744 16.1079 359.464C13.3772 358.141 11.0092 356.392 9.00387 354.216C6.99854 351.997 5.46254 349.523 4.39587 346.792C3.3292 344.019 2.79587 341.16 2.79587 338.216C2.79587 335.229 3.35054 332.371 4.45987 329.64C5.61187 326.867 7.19054 324.413 9.19587 322.28C11.2439 320.104 13.6545 318.397 16.4279 317.16C19.2012 315.923 22.2305 315.304 25.5159 315.304C28.8865 315.304 31.9372 315.965 34.6679 317.288C37.4412 318.568 39.8092 320.317 41.7719 322.536C43.7772 324.755 45.3132 327.251 46.3799 330.024C47.4465 332.755 47.9799 335.549 47.9799 338.408C47.9799 341.395 47.4039 344.275 46.2519 347.048C45.1425 349.779 43.5639 352.232 41.5159 354.408C39.5105 356.541 37.1212 358.248 34.3479 359.528C31.6172 360.765 28.6092 361.384 25.3239 361.384ZM13.4839 338.344C13.4839 340.691 13.9319 342.909 14.8279 345C15.7239 347.048 17.0679 348.733 18.8599 350.056C20.6519 351.379 22.8279 352.04 25.3879 352.04C28.0332 352.04 30.2305 351.357 31.9799 349.992C33.7719 348.627 35.0945 346.899 35.9479 344.808C36.8439 342.675 37.2919 340.477 37.2919 338.216C37.2919 335.869 36.8225 333.672 35.8839 331.624C34.9879 329.533 33.6439 327.848 31.8519 326.568C30.1025 325.288 27.9479 324.648 25.3879 324.648C22.7425 324.648 20.5239 325.331 18.7319 326.696C16.9825 328.019 15.6599 329.725 14.7639 331.816C13.9105 333.907 13.4839 336.083 13.4839 338.344ZM73.3089 361.32C70.3222 361.32 67.5062 360.765 64.8609 359.656C62.2582 358.504 59.9329 356.904 57.8849 354.856C55.8795 352.765 54.3009 350.312 53.1489 347.496C52.0395 344.637 51.4849 341.459 51.4849 337.96C51.4849 334.803 52.0395 331.859 53.1489 329.128C54.3009 326.397 55.9009 323.987 57.9489 321.896C60.0395 319.805 62.4502 318.184 65.1809 317.032C67.9542 315.837 70.9409 315.24 74.1409 315.24C78.3222 315.24 81.9915 316.136 85.1489 317.928C88.3489 319.72 90.7382 322.131 92.3169 325.16L84.5089 331.048C83.4849 329.043 81.9915 327.464 80.0289 326.312C78.0662 325.16 75.9755 324.584 73.7569 324.584C71.4529 324.584 69.4262 325.203 67.6769 326.44C65.9275 327.635 64.5622 329.277 63.5809 331.368C62.5995 333.459 62.1089 335.784 62.1089 338.344C62.1089 340.947 62.6209 343.293 63.6449 345.384C64.6689 347.432 66.0769 349.053 67.8689 350.248C69.7035 351.4 71.8155 351.976 74.2049 351.976C78.3009 351.976 81.9915 350.099 85.2769 346.344V344.872H76.4449V337.256H93.9809V361H85.2769V356.52C81.8209 359.72 77.8315 361.32 73.3089 361.32Z" fill="#181818"/>
</svg>
